<?xml version="1.0" encoding="UTF-8"?>
<svg width="236px" height="235px" viewBox="0 0 236 235" version="1.1" xmlns="http://www.w3.org/2000/svg" xmlns:xlink="http://www.w3.org/1999/xlink">
    <!-- Generator: Sketch 52.4 (67378) - http://www.bohemiancoding.com/sketch -->
    <title>Artboard</title>
    <desc>Created with Sketch.</desc>
    <g id="Artboard" stroke="none" stroke-width="1" fill="none">
        <g id="Group-Copy-4" transform="translate(140.000000, 8.000000)">
            <path d="M7.16984456,4.28421803 C6.79071833,4.16826874 6.39646052,4.10932766 6,4.10932766 C3.790861,4.10932766 2,5.90018866 2,8.10932766 L2,126.843667 C2,128.510495 3.03361871,130.002606 4.59409823,130.588455 L68.871442,154.720027 C69.32096,154.888789 69.7971906,154.975239 70.2773438,154.975239 C72.4864827,154.975239 74.2773438,153.184378 74.2773438,150.975239 L74.2773437,27.7674573 C74.2773437,26.0089259 73.1288321,24.4566497 71.4471883,23.9423476 L7.16984456,4.28421803 Z" id="Rectangle" stroke="#4F4F4F" stroke-width="4" fill="#87745B"></path>
            <path d="M36.6295428,130.203543 C52.9219429,131.741521 66.6526885,102.20762 66.6526885,73.2126702 C66.6526885,44.2177208 53.4450886,21.9594481 37.1526885,23.4974266 C20.8602884,25.0354052 9.13155086,47.0555695 9.13155086,72.9745618 C9.13155086,98.8935541 20.3371427,128.665564 36.6295428,130.203543 Z" id="Oval" fill="#BAA486" transform="translate(37.892120, 76.841708) rotate(-4.000000) translate(-37.892120, -76.841708) "></path>
            <circle id="Oval" fill="#B77F65" cx="9.5" cy="122.5" r="2.5"></circle>
            <circle id="Oval-Copy" fill="#B77F65" cx="65.5" cy="143.5" r="2.5"></circle>
            <circle id="Oval-Copy-2" fill="#B77F65" cx="65.5" cy="33.5" r="2.5"></circle>
            <circle id="Oval-Copy-3" fill="#B77F65" cx="9.5" cy="14.5" r="2.5"></circle>
        </g>
        <g id="Group-Copy-5" transform="translate(120.000000, 18.000000)">
            <path d="M7.16984456,4.28421803 C6.79071833,4.16826874 6.39646052,4.10932766 6,4.10932766 C3.790861,4.10932766 2,5.90018866 2,8.10932766 L2,126.843667 C2,128.510495 3.03361871,130.002606 4.59409823,130.588455 L68.871442,154.720027 C69.32096,154.888789 69.7971906,154.975239 70.2773438,154.975239 C72.4864827,154.975239 74.2773438,153.184378 74.2773438,150.975239 L74.2773437,27.7674573 C74.2773437,26.0089259 73.1288321,24.4566497 71.4471883,23.9423476 L7.16984456,4.28421803 Z" id="Rectangle" stroke="#4F4F4F" stroke-width="4" fill="#87745B"></path>
            <path d="M36.6295428,130.203543 C52.9219429,131.741521 66.6526885,102.20762 66.6526885,73.2126702 C66.6526885,44.2177208 53.4450886,21.9594481 37.1526885,23.4974266 C20.8602884,25.0354052 9.13155086,47.0555695 9.13155086,72.9745618 C9.13155086,98.8935541 20.3371427,128.665564 36.6295428,130.203543 Z" id="Oval" fill="#BAA486" transform="translate(37.892120, 76.841708) rotate(-4.000000) translate(-37.892120, -76.841708) "></path>
            <circle id="Oval" fill="#B77F65" cx="9.5" cy="122.5" r="2.5"></circle>
            <circle id="Oval-Copy" fill="#B77F65" cx="65.5" cy="143.5" r="2.5"></circle>
            <circle id="Oval-Copy-2" fill="#B77F65" cx="65.5" cy="33.5" r="2.5"></circle>
            <circle id="Oval-Copy-3" fill="#B77F65" cx="9.5" cy="14.5" r="2.5"></circle>
        </g>
        <g id="Group-Copy-6" transform="translate(100.000000, 28.000000)">
            <path d="M7.16984456,4.28421803 C6.79071833,4.16826874 6.39646052,4.10932766 6,4.10932766 C3.790861,4.10932766 2,5.90018866 2,8.10932766 L2,126.843667 C2,128.510495 3.03361871,130.002606 4.59409823,130.588455 L68.871442,154.720027 C69.32096,154.888789 69.7971906,154.975239 70.2773438,154.975239 C72.4864827,154.975239 74.2773438,153.184378 74.2773438,150.975239 L74.2773437,27.7674573 C74.2773437,26.0089259 73.1288321,24.4566497 71.4471883,23.9423476 L7.16984456,4.28421803 Z" id="Rectangle" stroke="#4F4F4F" stroke-width="4" fill="#87745B"></path>
            <path d="M36.6295428,130.203543 C52.9219429,131.741521 66.6526885,102.20762 66.6526885,73.2126702 C66.6526885,44.2177208 53.4450886,21.9594481 37.1526885,23.4974266 C20.8602884,25.0354052 9.13155086,47.0555695 9.13155086,72.9745618 C9.13155086,98.8935541 20.3371427,128.665564 36.6295428,130.203543 Z" id="Oval" fill="#BAA486" transform="translate(37.892120, 76.841708) rotate(-4.000000) translate(-37.892120, -76.841708) "></path>
            <circle id="Oval" fill="#B77F65" cx="9.5" cy="122.5" r="2.5"></circle>
            <circle id="Oval-Copy" fill="#B77F65" cx="65.5" cy="143.5" r="2.5"></circle>
            <circle id="Oval-Copy-2" fill="#B77F65" cx="65.5" cy="33.5" r="2.5"></circle>
            <circle id="Oval-Copy-3" fill="#B77F65" cx="9.5" cy="14.5" r="2.5"></circle>
        </g>
        <g id="Group-Copy-7" transform="translate(80.000000, 38.000000)">
            <path d="M7.16984456,4.28421803 C6.79071833,4.16826874 6.39646052,4.10932766 6,4.10932766 C3.790861,4.10932766 2,5.90018866 2,8.10932766 L2,126.843667 C2,128.510495 3.03361871,130.002606 4.59409823,130.588455 L68.871442,154.720027 C69.32096,154.888789 69.7971906,154.975239 70.2773438,154.975239 C72.4864827,154.975239 74.2773438,153.184378 74.2773438,150.975239 L74.2773437,27.7674573 C74.2773437,26.0089259 73.1288321,24.4566497 71.4471883,23.9423476 L7.16984456,4.28421803 Z" id="Rectangle" stroke="#4F4F4F" stroke-width="4" fill="#87745B"></path>
            <path d="M36.6295428,130.203543 C52.9219429,131.741521 66.6526885,102.20762 66.6526885,73.2126702 C66.6526885,44.2177208 53.4450886,21.9594481 37.1526885,23.4974266 C20.8602884,25.0354052 9.13155086,47.0555695 9.13155086,72.9745618 C9.13155086,98.8935541 20.3371427,128.665564 36.6295428,130.203543 Z" id="Oval" fill="#BAA486" transform="translate(37.892120, 76.841708) rotate(-4.000000) translate(-37.892120, -76.841708) "></path>
            <circle id="Oval" fill="#B77F65" cx="9.5" cy="122.5" r="2.5"></circle>
            <circle id="Oval-Copy" fill="#B77F65" cx="65.5" cy="143.5" r="2.5"></circle>
            <circle id="Oval-Copy-2" fill="#B77F65" cx="65.5" cy="33.5" r="2.5"></circle>
            <circle id="Oval-Copy-3" fill="#B77F65" cx="9.5" cy="14.5" r="2.5"></circle>
        </g>
        <g id="Group-Copy-8" transform="translate(60.000000, 48.000000)">
            <path d="M7.16984456,4.28421803 C6.79071833,4.16826874 6.39646052,4.10932766 6,4.10932766 C3.790861,4.10932766 2,5.90018866 2,8.10932766 L2,126.843667 C2,128.510495 3.03361871,130.002606 4.59409823,130.588455 L68.871442,154.720027 C69.32096,154.888789 69.7971906,154.975239 70.2773438,154.975239 C72.4864827,154.975239 74.2773438,153.184378 74.2773438,150.975239 L74.2773437,27.7674573 C74.2773437,26.0089259 73.1288321,24.4566497 71.4471883,23.9423476 L7.16984456,4.28421803 Z" id="Rectangle" stroke="#4F4F4F" stroke-width="4" fill="#87745B"></path>
            <path d="M36.6295428,130.203543 C52.9219429,131.741521 66.6526885,102.20762 66.6526885,73.2126702 C66.6526885,44.2177208 53.4450886,21.9594481 37.1526885,23.4974266 C20.8602884,25.0354052 9.13155086,47.0555695 9.13155086,72.9745618 C9.13155086,98.8935541 20.3371427,128.665564 36.6295428,130.203543 Z" id="Oval" fill="#BAA486" transform="translate(37.892120, 76.841708) rotate(-4.000000) translate(-37.892120, -76.841708) "></path>
            <circle id="Oval" fill="#B77F65" cx="9.5" cy="122.5" r="2.5"></circle>
            <circle id="Oval-Copy" fill="#B77F65" cx="65.5" cy="143.5" r="2.5"></circle>
            <circle id="Oval-Copy-2" fill="#B77F65" cx="65.5" cy="33.5" r="2.5"></circle>
            <circle id="Oval-Copy-3" fill="#B77F65" cx="9.5" cy="14.5" r="2.5"></circle>
        </g>
        <g id="Group-Copy-9" transform="translate(40.000000, 58.000000)">
            <path d="M7.16984456,4.28421803 C6.79071833,4.16826874 6.39646052,4.10932766 6,4.10932766 C3.790861,4.10932766 2,5.90018866 2,8.10932766 L2,126.843667 C2,128.510495 3.03361871,130.002606 4.59409823,130.588455 L68.871442,154.720027 C69.32096,154.888789 69.7971906,154.975239 70.2773438,154.975239 C72.4864827,154.975239 74.2773438,153.184378 74.2773438,150.975239 L74.2773437,27.7674573 C74.2773437,26.0089259 73.1288321,24.4566497 71.4471883,23.9423476 L7.16984456,4.28421803 Z" id="Rectangle" stroke="#4F4F4F" stroke-width="4" fill="#87745B"></path>
            <path d="M36.6295428,130.203543 C52.9219429,131.741521 66.6526885,102.20762 66.6526885,73.2126702 C66.6526885,44.2177208 53.4450886,21.9594481 37.1526885,23.4974266 C20.8602884,25.0354052 9.13155086,47.0555695 9.13155086,72.9745618 C9.13155086,98.8935541 20.3371427,128.665564 36.6295428,130.203543 Z" id="Oval" fill="#BAA486" transform="translate(37.892120, 76.841708) rotate(-4.000000) translate(-37.892120, -76.841708) "></path>
            <circle id="Oval" fill="#B77F65" cx="9.5" cy="122.5" r="2.5"></circle>
            <circle id="Oval-Copy" fill="#B77F65" cx="65.5" cy="143.5" r="2.5"></circle>
            <circle id="Oval-Copy-2" fill="#B77F65" cx="65.5" cy="33.5" r="2.5"></circle>
            <circle id="Oval-Copy-3" fill="#B77F65" cx="9.5" cy="14.5" r="2.5"></circle>
        </g>
        <g id="Group-Copy-10" transform="translate(20.000000, 68.000000)">
            <path d="M7.16984456,4.28421803 C6.79071833,4.16826874 6.39646052,4.10932766 6,4.10932766 C3.790861,4.10932766 2,5.90018866 2,8.10932766 L2,126.843667 C2,128.510495 3.03361871,130.002606 4.59409823,130.588455 L68.871442,154.720027 C69.32096,154.888789 69.7971906,154.975239 70.2773438,154.975239 C72.4864827,154.975239 74.2773438,153.184378 74.2773438,150.975239 L74.2773437,27.7674573 C74.2773437,26.0089259 73.1288321,24.4566497 71.4471883,23.9423476 L7.16984456,4.28421803 Z" id="Rectangle" stroke="#4F4F4F" stroke-width="4" fill="#87745B"></path>
            <path d="M36.6295428,130.203543 C52.9219429,131.741521 66.6526885,102.20762 66.6526885,73.2126702 C66.6526885,44.2177208 53.4450886,21.9594481 37.1526885,23.4974266 C20.8602884,25.0354052 9.13155086,47.0555695 9.13155086,72.9745618 C9.13155086,98.8935541 20.3371427,128.665564 36.6295428,130.203543 Z" id="Oval" fill="#BAA486" transform="translate(37.892120, 76.841708) rotate(-4.000000) translate(-37.892120, -76.841708) "></path>
            <circle id="Oval" fill="#B77F65" cx="9.5" cy="122.5" r="2.5"></circle>
            <circle id="Oval-Copy" fill="#B77F65" cx="65.5" cy="143.5" r="2.5"></circle>
            <circle id="Oval-Copy-2" fill="#B77F65" cx="65.5" cy="33.5" r="2.5"></circle>
            <circle id="Oval-Copy-3" fill="#B77F65" cx="9.5" cy="14.5" r="2.5"></circle>
        </g>
    </g>
</svg>